<svg width="70" height="70" viewBox="0 0 70 70" fill="none" xmlns="http://www.w3.org/2000/svg">
<rect width="70" height="70" fill="black"/>
<path d="M22.875 45L21.625 27.55H24.075L24.7 37.7L24.975 42.175H25.175L27.15 31.775H29.925L31.9 42.175H32.1L32.375 37.7L33.025 27.55H35.375L34.125 45H30.375L28.6 34.9H28.4L26.625 45H22.875ZM43.0402 29.75C42.3402 29.75 41.8486 29.6083 41.5652 29.325C41.2986 29.0417 41.1652 28.6917 41.1652 28.275V27.75C41.1652 27.3333 41.2986 26.9833 41.5652 26.7C41.8486 26.4167 42.3319 26.275 43.0152 26.275C43.7152 26.275 44.1986 26.4167 44.4652 26.7C44.7486 26.9833 44.8902 27.3333 44.8902 27.75V28.275C44.8902 28.6917 44.7486 29.0417 44.4652 29.325C44.1986 29.6083 43.7236 29.75 43.0402 29.75ZM37.2652 42.8H41.6652V34.3H37.2652V32.1H44.3902V42.8H48.5152V45H37.2652V42.8Z" fill="white"/>
</svg>
